<svg id="Layer_1" data-name="Layer 1" xmlns="http://www.w3.org/2000/svg" viewBox="0 0 218.12 247.37"><defs><style>.cls-1,.cls-2{fill:none;}.cls-1{stroke:#1d1d1b;stroke-miterlimit:10;}</style></defs><polyline class="cls-1" points="108.7 247.37 108.7 207.81 93.55 157.37 69.67 125.83 44.54 116.56 23.87 121.55 12.46 135.99 8.01 148.11"/><path class="cls-2" d="M200.91,432.8" transform="translate(-188.44 -296.81)"/><line class="cls-1" x1="12.46" y1="135.99" x2="2.31" y2="137.77"/><polyline class="cls-1" points="23.87 121.55 9.97 114.6 0.17 118.08"/><line class="cls-1" x1="9.97" y1="114.6" x2="2.31" y2="104.98"/><polyline class="cls-1" points="44.54 116.56 29.57 95 13.53 88.4 4.62 91.61"/><line class="cls-1" x1="13.53" y1="88.4" x2="7.38" y2="77"/><polyline class="cls-1" points="29.57 95 22.27 71.83 15.49 62.56"/><line class="cls-1" x1="22.27" y1="71.83" x2="22.53" y2="56.15"/><polyline class="cls-1" points="69.67 125.83 59.51 88.4 43.3 67.55 29.57 62.56 18.52 63.99"/><line class="cls-1" x1="29.57" y1="62.56" x2="20.48" y2="50.8"/><polyline class="cls-1" points="43.3 67.55 37.24 45.99 28.5 34.4"/><line class="cls-1" x1="37.24" y1="45.99" x2="37.24" y2="29.41"/><polyline class="cls-1" points="59.51 88.4 59.51 54.9 52.56 34.4 45.43 23.36"/><line class="cls-1" x1="52.56" y1="34.4" x2="52.56" y2="18.72"/><polyline class="cls-1" points="59.51 54.9 66.29 34.4 66.29 18.72"/><line class="cls-1" x1="66.29" y1="34.4" x2="74.13" y2="23.35"/><polyline class="cls-1" points="93.55 157.37 93.55 106.94 83.04 71.83 66.29 50.8 52.47 44.56 42.41 47.77"/><line class="cls-1" x1="52.47" y1="44.56" x2="44.54" y2="33.16"/><polyline class="cls-1" points="66.29 50.8 60.76 28.88 51.67 16.76"/><line class="cls-1" x1="60.76" y1="28.88" x2="60.76" y2="11.77"/><polyline class="cls-1" points="83.04 71.83 83.04 38.33 75.73 16.76 68.96 6.96"/><line class="cls-1" x1="75.73" y1="16.76" x2="76" y2="0.01"/><polyline class="cls-1" points="83.04 38.33 89.45 16.76 89.45 0.01"/><line class="cls-1" x1="89.45" y1="16.76" x2="97.83" y2="6.96"/><polyline class="cls-1" points="93.55 106.94 105.25 71.83 105.25 38.33 97.83 16.76 90.88 6.96"/><line class="cls-1" x1="97.83" y1="16.76" x2="97.83" y2="0.01"/><polyline class="cls-1" points="105.25 38.33 111.38 16.76 111.38 0.01"/><line class="cls-1" x1="111.38" y1="16.76" x2="119.39" y2="6.96"/><polyline class="cls-1" points="105.25 71.83 120.46 50.8 126.7 27.81 126.7 11.77"/><line class="cls-1" x1="126.7" y1="27.81" x2="134.9" y2="18.72"/><polyline class="cls-1" points="120.46 50.8 136.15 44.56 142.92 33.16"/><line class="cls-1" x1="136.15" y1="44.56" x2="145.41" y2="48.48"/><polyline class="cls-1" points="108.7 207.81 124.56 156.13 124.56 106.94 113.51 71.83 97.12 50.8 81.97 44.56 73.24 48.48"/><line class="cls-1" x1="81.97" y1="44.56" x2="75.02" y2="33.16"/><polyline class="cls-1" points="97.12 50.8 91.59 27.81 83.04 18.72"/><path class="cls-1" d="M280,324.62" transform="translate(-188.44 -296.81)"/><line class="cls-1" x1="91.59" y1="27.81" x2="91.59" y2="11.77"/><polyline class="cls-1" points="113.51 71.83 113.51 38.86 106.39 16.05 98.9 6.96"/><line class="cls-1" x1="106.38" y1="16.05" x2="106.38" y2="0.01"/><polyline class="cls-1" points="113.51 38.86 120.46 16.76 120.46 0.01"/><line class="cls-1" x1="120.46" y1="16.76" x2="126.7" y2="6.96"/><polyline class="cls-1" points="124.56 106.94 134.9 71.83 134.9 38.33 128.13 16.05 121.36 6.96"/><line class="cls-1" x1="128.13" y1="16.05" x2="128.13" y2="0.01"/><polyline class="cls-1" points="134.9 38.33 141.85 16.76 141.85 0.01"/><line class="cls-1" x1="141.85" y1="16.76" x2="149.16" y2="6.96"/><polyline class="cls-1" points="134.9 71.83 150.94 50.8 157.89 27.81 157.89 11.77"/><line class="cls-1" x1="157.89" y1="27.81" x2="165.38" y2="18.72"/><polyline class="cls-1" points="150.94 50.8 165.38 44.56 173.93 33.16"/><line class="cls-1" x1="165.38" y1="44.56" x2="175.89" y2="47.77"/><polyline class="cls-1" points="124.56 156.13 148.44 125.83 157.89 88.4 157.89 54.9 151.65 33.78 143.99 23.36"/><line class="cls-1" x1="151.65" y1="33.78" x2="151.65" y2="18.01"/><polyline class="cls-1" points="157.89 54.9 165.38 34.4 165.38 20.32"/><line class="cls-1" x1="165.38" y1="34.4" x2="172.5" y2="23.35"/><polyline class="cls-1" points="157.89 88.4 173.93 67.55 181.06 45.27 181.06 29.41"/><line class="cls-1" x1="181.06" y1="45.28" x2="189.43" y2="34.76"/><polyline class="cls-1" points="173.93 67.55 189.43 62.56 197.28 50.98"/><line class="cls-1" x1="189.43" y1="62.56" x2="199.06" y2="63.99"/><polyline class="cls-1" points="148.44 125.83 173.22 116.56 188.19 95 195.32 71.83 195.32 56.68"/><line class="cls-1" x1="195.32" y1="71.83" x2="202.8" y2="62.56"/><polyline class="cls-1" points="188.19 95 202.8 88.4 210.82 77"/><line class="cls-1" x1="202.8" y1="88.4" x2="213.49" y2="92.15"/><polyline class="cls-1" points="173.22 116.56 194.25 121.55 208.15 114.6 215.81 104.98"/><line class="cls-1" x1="208.15" y1="114.6" x2="217.95" y2="118.08"/><polyline class="cls-1" points="194.25 121.55 205.47 135.99 215.81 137.77"/><line class="cls-1" x1="205.47" y1="135.99" x2="210.82" y2="150"/></svg>